P2
# Created by IrfanView
96 98
255
34 21 28 29 37 38 33 39 47 40 44 53 50 49 54 51 53 
63 55 53 58 58 55 55 56 59 58 53 53 64 66 62 96 
107 106 111 122 129 135 144 154 167 177 184 177 176 181 180 175 
166 180 187 195 191 183 173 153 153 154 139 134 134 124 116 115 
95 84 82 70 51 57 67 61 69 74 68 67 65 63 69 73 
78 82 79 62 58 56 50 48 53 47 42 31 42 30 82 27 31 45 60 66 61 59 62 67 70 75 70 81 70 76 75 74 
67 67 57 56 59 65 70 69 71 78 70 64 74 83 85 106 
112 117 108 122 137 143 154 162 168 170 179 185 188 195 192 183 
180 177 185 189 175 162 173 165 156 148 145 143 132 115 110 104 
85 79 74 67 59 50 63 74 72 69 61 66 68 71 74 76 
75 68 63 75 65 55 49 60 58 43 50 39 42 18 80 37 50 59 71 71 83 93 85 85 90 93 93 104 90 108 87 94 
85 91 85 90 87 86 92 83 83 84 78 87 86 95 92 101 
111 116 127 140 135 145 153 153 158 171 183 192 184 183 192 189 
190 184 188 191 185 174 166 161 153 146 145 143 139 126 120 109 
99 93 87 81 67 72 80 84 92 88 82 89 94 93 94 109 
105 104 94 110 102 106 91 84 79 85 74 51 60 41 99 59 68 74 80 90 109 116 111 121 117 120 135 134 125 128 111 113 
111 117 111 118 101 97 105 103 105 97 91 99 104 104 100 115 
118 122 129 138 140 160 163 155 168 171 186 190 189 186 183 195 
180 197 202 189 189 173 164 159 154 153 146 145 136 127 125 126 
118 111 97 87 75 77 78 73 89 97 91 106 110 112 122 131 
130 142 126 130 118 118 110 100 108 125 102 83 81 64 99 108 136 144 145 149 138 144 139 146 144 144 141 142 147 148 139 138 
125 109 118 114 115 106 106 109 110 110 104 108 125 116 119 117 
113 140 143 142 155 159 168 166 175 180 188 190 197 192 202 194 
192 195 191 188 194 191 180 171 166 156 156 163 155 132 121 114 
110 120 109 96 96 102 95 97 98 104 101 120 126 140 154 147 
140 156 131 148 147 132 119 119 133 134 127 151 154 136 149 129 166 171 171 153 152 149 156 156 153 148 144 156 161 161 151 150 
155 139 131 124 111 111 111 106 105 111 111 116 111 115 131 126 
119 139 140 145 159 157 161 172 187 184 190 186 190 199 201 190 
183 198 206 198 194 176 168 171 168 160 163 156 149 131 126 120 
122 132 141 102 106 115 112 120 102 117 138 144 145 142 148 155 
152 157 145 150 136 130 136 135 132 143 146 160 167 151 166 129 174 184 171 175 171 170 157 155 159 158 158 160 158 155 165 170 
164 158 149 137 124 131 128 118 121 120 118 119 115 119 122 131 
134 136 146 148 156 173 168 177 201 172 180 190 202 206 203 193 
187 198 202 202 196 189 186 182 168 161 161 152 154 146 138 122 
131 142 136 142 129 120 110 115 120 136 160 158 152 162 158 155 
152 141 139 143 147 137 145 153 160 169 168 172 163 153 162 128 169 173 175 182 170 174 159 166 170 166 168 157 150 139 149 175 
167 162 157 162 156 139 140 140 139 139 129 127 128 141 131 132 
141 157 157 160 159 175 177 171 190 193 189 194 206 212 199 188 
183 199 205 206 191 181 177 182 172 167 166 154 164 144 135 138 
133 127 132 142 144 139 150 132 147 158 164 159 167 170 158 161 
161 153 156 158 155 164 151 160 169 164 164 178 165 166 169 118 161 178 186 187 188 180 171 181 175 165 174 166 175 169 147 154 
173 176 177 185 181 166 167 163 162 160 151 136 150 135 135 138 
145 158 164 175 179 181 183 186 198 199 204 208 201 196 198 177 
190 203 199 219 209 192 182 180 184 171 169 166 155 155 139 147 
142 135 137 134 132 144 165 162 172 185 186 191 169 160 159 173 
175 177 166 167 162 174 180 186 172 170 174 170 158 154 161 147 175 179 179 184 194 193 186 174 171 179 179 175 186 189 178 174 
178 182 197 187 175 180 187 171 166 166 159 151 157 150 145 156 
156 158 160 164 181 187 180 188 190 188 196 209 206 192 195 187 
193 192 197 202 199 187 195 185 177 173 176 182 160 161 147 153 
146 146 150 151 148 150 157 175 181 192 181 189 191 182 166 175 
176 180 172 153 175 175 186 186 186 177 182 169 165 181 167 154 182 180 183 194 200 191 197 191 180 182 190 189 197 198 189 197 
184 175 174 177 186 187 193 185 163 160 149 160 158 168 164 168 
168 171 179 183 194 194 186 184 182 191 194 204 205 195 186 186 
191 204 205 196 189 190 184 189 183 189 186 181 169 166 162 161 
159 160 149 151 163 174 179 200 182 179 180 172 169 177 183 198 
208 197 185 188 191 186 204 199 189 182 189 179 177 184 185 144 185 192 197 201 200 196 199 201 192 197 200 198 200 198 186 178 
174 183 181 187 191 189 197 192 176 172 170 174 173 167 167 176 
178 171 176 182 195 183 191 190 190 195 193 199 204 200 190 195 
190 204 204 195 206 180 185 185 182 190 179 182 182 170 180 169 
161 166 171 170 183 185 202 205 194 183 182 176 157 162 168 187 
199 196 203 203 194 194 206 202 205 205 174 182 178 178 177 151 188 197 198 196 201 205 196 210 208 202 197 196 195 195 187 192 
195 187 181 190 194 187 189 198 205 180 182 183 180 179 181 174 
178 174 181 176 180 182 191 182 187 198 205 210 210 209 192 187 
191 212 203 203 191 188 200 187 180 184 188 186 178 177 174 185 
176 184 184 190 203 200 194 202 193 190 181 177 170 171 169 175 
189 210 216 208 198 211 217 211 209 194 184 185 185 189 187 159 194 199 198 204 199 213 201 207 219 200 193 202 207 190 181 180 
185 190 192 189 193 202 201 198 205 205 194 178 163 150 150 152 
162 165 168 151 155 170 192 204 205 199 213 213 207 199 202 203 
201 205 202 196 198 196 196 183 165 160 169 167 169 180 161 185 
187 196 195 200 206 201 185 199 192 187 184 181 177 175 178 176 
181 196 197 204 203 199 213 216 202 200 209 193 201 193 190 159 199 209 201 203 199 204 204 207 211 205 202 209 215 184 184 181 
187 188 191 190 176 187 202 204 202 213 189 169 161 156 149 150 
157 163 159 152 160 162 175 193 196 206 210 205 207 196 189 193 
200 197 211 201 197 202 191 174 160 148 149 148 161 181 163 182 
187 196 203 202 202 193 185 193 201 193 192 175 171 179 186 184 
181 188 191 214 222 209 224 203 203 206 202 198 197 199 191 158 200 189 203 205 206 201 208 214 204 191 196 198 212 187 194 198 
189 187 185 191 181 189 192 198 198 192 177 170 167 169 160 160 
157 143 141 151 153 152 159 170 193 206 203 204 204 204 197 191 
193 199 207 209 201 190 176 149 156 150 157 152 146 179 178 182 
190 178 197 205 202 202 196 197 195 179 188 184 182 179 178 189 
185 185 188 187 206 208 215 193 197 205 198 192 184 199 190 163 200 200 210 195 205 203 201 199 197 189 197 204 201 191 194 196 
194 190 194 197 215 207 183 175 175 174 170 176 171 172 176 159 
162 158 141 131 133 145 160 179 183 184 201 208 202 204 200 203 
200 216 207 206 195 179 173 162 155 142 143 146 147 171 179 180 
188 184 178 191 196 208 208 197 194 177 177 174 183 180 178 186 
191 178 195 189 199 207 214 210 200 212 194 191 200 188 194 169 207 213 213 206 211 207 210 194 195 196 190 205 206 197 193 190 
198 195 199 200 202 201 183 171 171 179 182 180 174 185 177 176 
151 148 152 148 141 151 162 172 179 192 203 196 199 200 194 205 
200 207 208 205 185 174 172 159 142 137 146 161 168 176 180 179 
178 185 168 170 175 187 200 196 195 192 195 176 173 173 185 189 
182 177 190 178 189 197 204 209 206 196 188 193 190 182 194 153 203 200 218 205 205 219 208 198 196 188 194 202 210 194 197 199 
199 201 197 195 195 186 181 176 166 155 153 162 166 161 170 183 
178 172 162 162 159 157 165 165 182 184 192 201 195 188 187 201 
205 204 208 193 178 172 162 152 147 151 158 167 175 174 167 171 
178 165 173 171 168 164 185 195 204 197 194 185 194 176 171 176 
187 191 181 186 185 195 212 202 216 211 182 182 185 194 192 156 198 202 203 201 195 200 202 198 200 192 202 196 186 189 202 193 
194 205 196 187 190 183 167 152 144 138 136 142 153 153 160 165 
174 167 158 161 166 164 173 162 182 183 198 206 187 179 184 193 
203 212 203 193 183 177 182 164 152 150 152 160 164 163 168 166 
160 160 160 160 155 156 177 185 200 206 198 190 201 186 181 185 
192 181 186 174 183 198 211 198 214 208 187 192 194 197 200 168 200 210 213 208 208 221 218 199 194 199 200 194 187 196 207 200 
202 210 210 188 175 165 157 147 138 126 129 132 135 148 160 156 
163 160 152 151 165 166 172 177 183 196 202 204 198 191 196 194 
190 195 198 192 180 171 180 171 158 157 155 166 172 173 165 142 
138 137 135 148 150 164 179 173 183 199 204 192 195 184 185 187 
179 186 187 173 189 195 210 200 201 210 213 206 182 174 194 163 197 202 205 213 225 221 210 197 203 201 202 212 204 194 191 200 
209 206 199 183 160 143 142 143 142 129 126 118 119 127 142 149 
157 161 156 157 156 155 171 174 178 193 201 202 199 203 198 204 
209 198 200 201 176 169 148 145 154 144 144 154 148 141 128 120 
117 128 122 129 138 156 172 178 184 187 203 203 198 186 185 177 
183 190 189 186 184 197 204 201 207 214 205 203 202 191 188 166 206 204 197 201 212 218 216 204 193 201 210 203 207 200 194 204 
211 197 166 168 152 141 146 140 126 125 118 107 116 114 118 127 
136 147 147 149 145 147 157 168 173 170 194 200 193 202 204 205 
208 196 200 192 168 152 146 141 143 149 151 145 141 130 117 128 
118 116 121 126 137 145 149 172 179 171 196 200 194 188 187 182 
189 192 192 197 184 194 196 199 209 203 191 203 199 206 204 161 197 200 201 208 202 211 209 203 201 200 201 193 198 200 200 204 
201 189 160 151 142 142 136 132 120 123 117 104 104 113 120 126 
136 146 138 143 147 150 159 161 181 194 189 189 190 202 204 206 
204 196 199 178 150 146 146 144 130 148 132 124 121 120 115 114 
114 109 120 130 139 148 137 144 155 175 198 205 201 185 179 198 
189 192 197 197 196 192 196 204 208 197 198 192 188 188 184 157 194 186 193 208 200 198 207 201 207 204 193 193 207 212 210 205 
191 182 171 157 156 141 130 134 117 123 107 108 111 110 108 104 
120 133 134 132 141 158 152 165 181 192 205 193 194 200 200 204 
203 197 188 170 155 161 149 131 125 136 125 122 113 115 108 112 
111 108 119 124 136 143 137 151 152 171 185 194 202 195 203 197 
195 194 195 187 187 194 201 205 197 192 192 183 185 187 173 157 201 201 189 214 208 202 212 202 198 211 197 196 211 206 205 203 
202 177 158 155 152 146 126 123 111 107 100 97 94 96 94 95 
104 111 136 137 139 150 141 161 171 178 204 192 191 201 206 211 
205 198 184 167 157 160 133 122 139 126 113 116 108 110 97 98 
101 110 123 128 131 137 142 148 152 158 172 188 192 192 196 195 
201 188 196 192 181 198 204 200 188 184 193 191 177 178 167 152 190 191 183 201 213 202 181 217 196 200 211 206 201 197 201 199 
180 169 173 154 125 120 120 107 111 113 105 92 86 93 88 96 
102 110 130 139 140 143 156 168 174 183 185 207 207 197 194 201 
198 190 187 175 152 145 136 126 126 117 124 117 100 101 94 100 
89 97 117 122 130 135 145 147 154 168 185 190 191 208 197 187 
184 185 195 187 194 205 196 197 193 184 178 191 189 179 159 157 199 210 201 203 209 208 196 213 212 203 205 194 205 208 207 199 
182 171 154 133 136 115 109 86 95 96 87 87 86 88 83 83 
105 122 115 127 133 134 152 165 186 197 194 194 198 209 218 217 
203 196 193 174 150 148 139 133 134 121 119 106 104 90 84 73 
75 107 111 114 114 127 146 153 151 161 170 189 207 217 191 180 
186 203 193 184 194 202 194 190 187 182 169 182 180 179 174 151 196 208 202 208 202 210 206 195 212 197 203 202 198 206 198 184 
176 164 157 135 137 108 117 100 98 89 77 87 83 79 88 99 
105 110 116 118 126 140 136 158 176 185 198 205 195 197 210 209 
206 206 189 161 145 138 127 124 125 119 109 91 89 75 73 83 
90 88 94 113 114 124 123 146 146 161 173 189 202 203 200 181 
193 202 192 196 191 197 194 194 184 188 177 178 176 173 166 156 202 201 193 208 207 211 219 214 207 201 207 212 205 215 204 176 
169 159 153 139 127 104 121 110 101 103 95 101 98 100 97 98 
98 98 106 104 115 120 124 153 173 176 189 198 201 210 211 217 
221 219 195 162 142 129 109 113 116 113 105 90 97 82 88 95 
95 111 101 95 110 110 124 126 149 159 171 189 197 197 206 187 
191 176 194 186 201 204 192 192 187 178 175 187 179 167 162 156 196 196 187 202 206 203 205 209 199 205 199 202 205 213 207 166 
153 147 134 129 125 118 123 110 102 112 104 102 112 100 94 89 
92 105 110 120 125 118 121 148 159 171 196 210 195 208 221 218 
217 215 199 175 157 127 120 134 128 116 107 92 96 100 100 94 
98 104 108 106 108 118 120 121 133 163 171 183 202 197 194 195 
200 191 198 191 211 200 188 194 180 180 178 198 190 170 167 158 188 189 196 205 198 210 206 211 200 206 215 211 209 214 199 161 
162 151 150 160 162 134 125 115 107 101 100 98 106 103 100 101 
108 106 114 114 110 120 129 151 169 187 190 182 200 204 214 218 
219 199 194 181 158 131 136 135 109 97 96 94 97 113 109 96 
99 99 106 109 124 124 133 128 135 157 178 176 197 210 205 193 
197 185 189 194 196 199 199 192 186 184 180 181 180 164 168 172 198 191 197 202 206 213 213 200 198 205 203 199 199 206 182 171 
169 151 146 145 151 130 124 120 114 92 92 98 92 93 79 84 
113 123 106 97 114 115 119 134 170 175 194 203 208 202 206 215 
220 204 197 189 169 133 121 126 115 99 100 103 100 82 78 95 
105 104 109 117 126 113 134 141 147 155 157 179 196 211 208 205 
199 202 192 200 195 193 187 195 174 178 183 177 175 171 165 155 195 200 199 197 203 203 194 195 201 207 207 200 203 198 183 183 
177 158 157 145 135 139 128 119 107 103 94 90 89 85 82 76 
88 103 103 108 110 119 129 141 180 184 192 203 220 216 214 218 
209 211 206 185 161 134 119 118 102 95 106 97 88 85 79 89 
99 96 99 107 117 112 137 147 152 157 161 180 191 204 207 212 
188 196 191 196 201 196 187 198 184 185 183 165 168 177 162 150 189 206 195 197 198 193 200 209 206 195 207 210 210 201 180 183 
166 154 164 144 124 112 111 114 105 99 93 93 87 83 90 97 
102 94 106 108 111 109 108 135 178 184 192 202 218 214 212 219 
214 211 199 184 177 134 109 105 104 110 113 91 79 81 79 84 
88 78 93 105 101 114 137 141 148 171 164 158 198 209 211 223 
192 192 201 197 204 198 200 188 192 189 185 180 184 171 145 148 185 185 194 198 192 196 212 207 209 204 205 212 201 201 180 179 
179 164 145 129 119 113 120 118 100 95 94 94 87 93 83 92 
93 93 113 115 112 92 108 151 183 181 193 197 210 216 218 222 
222 211 203 189 147 87 85 98 109 107 109 81 76 78 87 86 
83 96 89 96 90 99 129 138 155 169 168 167 184 198 199 213 
198 191 194 194 191 198 202 191 180 178 172 185 165 161 149 144 161 168 172 181 208 204 201 207 206 199 207 216 210 205 194 178 
173 156 144 132 117 106 118 110 112 106 95 93 82 85 86 92 
88 99 107 107 110 105 109 150 183 180 199 198 210 221 223 224 
216 197 194 188 133 94 98 92 110 103 100 91 85 83 83 79 
78 90 91 96 99 101 120 125 142 162 163 177 201 199 204 207 
204 203 197 200 198 199 203 192 180 178 175 174 152 165 153 127 158 174 179 181 187 200 197 199 201 205 197 211 220 203 196 179 
166 150 130 138 123 110 113 110 108 105 96 98 93 94 105 95 
99 107 105 113 112 113 134 154 174 195 208 199 212 217 216 219 
208 195 198 177 129 126 108 111 115 111 101 89 84 84 85 85 
92 92 82 79 96 101 123 123 132 140 158 167 178 203 207 206 
206 204 192 200 199 194 191 187 183 175 167 158 144 152 128 124 163 168 177 174 194 195 190 197 207 207 199 203 213 203 192 165 
162 147 130 133 121 115 108 118 117 116 107 109 105 114 110 117 
108 109 121 127 123 127 155 174 176 192 208 195 203 213 216 215 
203 201 203 177 127 106 105 118 133 129 113 98 93 92 91 89 
100 106 107 100 118 111 118 111 122 137 170 186 189 206 203 213 
201 203 195 209 200 195 192 187 181 172 173 157 144 133 104 103 144 159 161 174 183 188 196 205 203 211 212 210 202 194 176 162 
148 139 144 129 130 124 112 122 130 128 119 118 111 121 113 124 
134 120 117 125 145 149 169 179 183 195 207 214 211 212 212 213 
215 213 198 183 140 106 124 130 133 131 107 112 112 108 113 112 
107 112 119 115 127 112 108 103 117 130 157 182 185 212 214 205 
206 198 195 200 196 199 191 192 170 165 152 138 126 110 86 93 123 136 156 167 183 189 196 202 209 216 211 213 212 195 166 161 
157 141 137 132 138 131 116 122 117 122 132 129 124 124 128 135 
147 137 121 133 151 143 178 173 171 185 197 207 211 218 212 207 
214 216 204 184 152 143 142 135 149 142 126 126 114 106 110 116 
118 118 125 123 119 115 118 112 135 132 163 187 205 212 211 214 
207 199 198 199 197 200 193 186 174 167 149 129 102 103 92 93 117 125 156 174 182 192 198 202 209 204 198 209 215 194 164 161 
172 161 154 151 142 120 120 129 118 131 130 121 129 124 116 128 
133 140 136 147 159 158 171 182 194 202 207 213 215 215 217 212 
203 203 201 185 167 168 157 150 153 147 136 124 101 111 113 107 
120 108 99 116 120 120 129 126 134 133 153 168 194 209 212 219 
207 201 203 199 196 195 188 178 168 160 137 106 85 93 80 89 109 127 156 168 173 184 191 191 215 208 206 211 212 194 178 179 
168 164 155 138 133 135 130 118 117 106 99 90 112 117 113 126 
125 135 131 131 139 165 170 179 184 196 202 205 208 213 212 215 
213 206 203 187 170 159 156 157 160 152 135 124 103 97 100 95 
92 96 94 107 102 116 119 127 132 153 151 160 186 216 213 217 
211 199 203 196 198 193 189 181 174 160 124 97 87 81 68 80 113 115 140 172 178 186 199 200 203 209 213 216 205 192 173 175 
167 165 159 147 129 123 119 114 105 107 99 93 108 100 106 126 
143 135 135 135 151 170 177 184 197 207 210 207 206 202 218 217 
216 205 200 189 171 165 157 169 163 141 124 104 97 96 92 90 
100 89 101 101 105 124 135 132 141 158 158 173 192 206 204 214 
212 213 203 194 203 197 186 172 162 141 116 102 79 73 67 78 112 107 134 176 173 179 200 205 194 206 216 219 211 186 165 172 
170 152 141 136 123 119 116 107 100 105 94 96 105 105 97 117 
144 138 124 134 155 164 170 176 194 205 218 205 209 214 210 216 
212 204 196 188 173 173 171 173 162 147 124 100 100 105 93 92 
105 95 101 103 107 114 123 139 147 151 159 184 189 206 215 216 
204 203 203 189 187 188 187 176 164 126 96 89 81 66 53 73 105 88 117 145 169 186 199 212 208 200 208 222 223 201 179 169 
164 142 133 133 120 109 123 111 109 112 84 86 92 93 95 107 
129 136 134 145 155 164 183 185 190 204 212 211 210 214 215 216 
214 212 198 182 175 169 163 167 163 145 130 116 111 111 98 86 
98 92 97 98 96 103 109 129 137 145 158 181 184 202 213 213 
199 196 204 193 193 194 189 172 154 113 92 82 71 58 53 69 94 95 112 138 169 180 196 195 203 196 208 219 215 200 180 161 
154 138 133 125 119 115 121 119 117 104 102 105 101 111 109 114 
134 136 150 157 155 174 175 185 200 208 223 220 214 216 213 217 
214 221 209 194 185 172 162 162 157 143 124 119 123 114 116 107 
99 92 96 99 92 116 120 125 129 148 167 185 195 211 213 216 
210 200 202 189 188 181 179 166 135 97 101 96 77 62 48 63 92 108 116 130 173 187 185 198 195 206 210 205 200 193 172 157 
157 146 134 128 123 120 110 106 109 102 109 115 118 123 121 126 
136 143 152 155 168 193 187 194 208 213 215 213 207 213 214 206 
220 216 198 192 175 169 164 165 158 150 129 128 132 108 121 106 
89 92 99 100 103 120 121 123 130 147 164 173 177 204 212 202 
204 209 208 187 183 180 183 162 117 95 95 76 70 56 30 76 93 99 122 127 159 181 186 199 201 211 224 223 205 197 172 162 
151 138 135 126 116 106 114 120 126 122 117 113 122 123 124 142 
145 155 162 156 171 190 191 199 206 212 217 214 215 219 212 214 
222 214 205 201 184 177 168 166 161 153 137 125 118 115 112 99 
96 111 125 109 113 112 119 112 125 135 153 168 195 210 211 201 
206 212 211 189 182 184 176 153 101 89 83 62 57 50 43 70 85 91 110 125 169 188 183 196 204 199 204 214 210 191 172 170 
152 129 131 131 127 112 118 122 122 113 115 121 134 139 133 153 
166 176 181 172 185 194 191 208 207 213 217 212 215 221 213 220 
220 213 212 200 191 196 179 160 153 160 148 121 116 125 131 137 
101 119 119 134 125 121 112 107 127 133 145 170 206 200 201 208 
206 202 199 185 189 184 162 140 101 79 73 71 58 54 55 59 83 91 110 115 146 179 179 187 182 199 204 208 213 190 180 166 
152 133 135 137 142 130 125 118 122 124 136 119 117 110 117 148 
156 167 175 174 180 194 185 200 200 209 220 219 214 223 224 224 
223 212 211 207 199 206 184 158 155 148 148 125 107 111 125 134 
123 118 122 123 122 130 119 118 129 141 138 168 191 207 209 201 
202 202 204 185 180 170 165 120 95 92 81 70 56 47 36 64 75 101 98 128 147 182 190 197 198 209 205 206 202 171 164 160 
163 159 149 145 144 133 125 132 127 122 111 101 113 121 140 161 
163 154 159 164 176 188 190 191 198 207 216 217 211 218 222 216 
202 206 215 218 214 197 174 173 176 164 157 144 113 105 104 113 
126 118 127 122 126 118 125 127 131 141 140 160 186 197 215 209 
201 213 197 183 181 165 161 122 94 88 76 66 55 42 37 55 74 91 103 134 149 171 190 201 211 222 220 215 200 166 154 155 
165 149 140 138 138 132 128 117 125 109 95 108 104 124 164 164 
170 158 157 155 181 191 187 197 210 212 221 220 214 215 208 215 
215 213 213 210 210 197 182 181 175 159 144 143 132 134 117 115 
107 114 112 107 114 112 124 116 133 135 147 150 185 207 216 217 
197 211 205 180 190 171 145 117 102 88 77 68 56 40 40 52 82 88 123 129 148 164 185 200 204 214 216 206 201 187 163 160 
169 154 150 152 141 126 108 118 116 114 110 96 113 131 155 151 
156 148 162 170 177 184 186 193 205 207 201 207 221 212 214 225 
223 223 217 209 201 187 194 190 171 151 141 137 111 114 113 119 
105 110 106 99 100 117 116 128 138 134 153 165 182 212 216 220 
207 195 201 194 180 164 133 112 105 82 68 68 60 39 27 54 84 92 124 131 148 162 178 197 202 208 213 205 194 184 177 168 
164 168 155 140 138 116 107 118 105 114 117 114 113 118 156 155 
155 161 153 165 172 185 203 198 201 206 210 215 221 221 218 221 
219 225 220 210 205 196 193 189 176 172 155 129 114 116 122 103 
103 116 101 105 110 112 122 140 138 151 159 175 187 200 214 213 
223 210 186 182 160 154 123 107 94 74 61 57 48 44 27 52 64 97 107 133 154 169 183 199 202 210 216 202 192 176 174 156 
153 161 144 127 133 126 114 114 125 120 111 130 133 130 150 156 
157 170 155 166 183 191 187 195 212 213 215 214 214 221 213 210 
216 219 218 217 215 207 196 189 183 187 182 149 120 105 115 120 
107 94 103 116 111 112 111 126 140 153 168 183 180 191 206 207 
208 196 186 180 175 152 130 114 104 78 69 58 43 39 30 52 68 100 107 131 153 161 180 187 196 201 210 199 186 186 170 160 
156 150 143 131 131 132 121 117 120 112 114 124 117 135 149 155 
163 164 161 182 194 196 203 206 210 203 212 221 220 217 225 225 
223 223 216 211 215 205 204 203 199 188 188 172 152 138 110 115 
117 110 100 112 112 112 119 126 143 161 172 184 189 190 220 209 
208 205 207 182 169 128 134 118 107 86 76 57 37 24 27 55 82 103 121 130 156 173 182 193 204 192 213 206 185 170 172 168 
155 144 142 128 131 134 126 123 115 115 114 112 113 143 157 158 
167 162 156 188 205 199 207 210 215 225 217 215 220 224 222 221 
216 210 219 222 214 204 203 209 201 203 195 180 176 169 139 129 
128 112 103 110 109 102 106 128 146 146 160 167 186 195 226 211 
214 192 198 190 162 126 137 107 96 91 72 39 35 33 24 56 96 104 117 140 155 157 173 195 205 203 206 197 187 180 155 149 
152 148 144 125 129 124 114 120 128 136 125 142 147 150 154 154 
160 154 165 186 187 212 203 211 213 223 220 219 224 226 221 216 
224 227 221 223 219 210 198 203 210 214 202 188 179 174 177 143 
131 132 126 106 116 99 113 127 140 130 159 169 185 197 214 213 
215 198 198 198 141 129 138 105 94 85 71 43 34 28 21 61 95 113 121 145 161 166 181 186 203 195 209 195 186 177 157 149 
153 150 143 133 136 127 127 144 137 143 153 156 158 167 148 149 
152 153 165 179 203 215 209 199 210 211 215 212 217 224 223 226 
213 213 217 216 218 213 203 204 203 207 208 200 198 191 183 172 
149 130 136 127 129 115 119 126 133 135 145 162 173 198 211 208 
215 205 201 184 159 144 132 116 109 70 73 44 28 27 23 60 78 108 120 132 139 163 185 177 193 207 211 191 187 158 153 143 
145 133 134 132 126 130 138 150 147 151 147 145 160 156 135 145 
147 147 164 174 202 212 221 204 217 205 211 217 228 221 223 220 
218 222 224 216 213 206 204 209 202 204 198 202 203 190 187 182 
168 160 132 140 134 141 132 128 128 147 141 156 175 199 205 217 
196 200 198 177 157 142 133 109 97 78 59 49 25 25 22 56 82 105 117 129 141 156 182 193 195 208 203 186 181 167 162 151 
140 140 142 134 133 131 135 147 142 147 154 160 156 141 141 147 
156 154 167 178 192 213 211 208 208 225 228 218 218 218 218 222 
230 225 221 216 211 209 212 215 213 199 192 211 206 186 181 185 
185 168 152 134 122 137 148 140 137 144 142 154 165 194 202 214 
213 217 199 182 159 144 139 121 99 82 47 53 36 20 14 55 81 105 119 130 143 154 177 188 193 203 197 172 171 162 165 153 
138 141 137 144 146 142 141 146 141 134 140 134 146 146 149 146 
155 161 171 189 207 208 215 214 207 216 225 222 217 217 219 226 
228 225 224 221 216 221 217 211 206 213 210 208 198 186 192 193 
187 180 158 133 117 139 146 142 144 144 142 140 167 197 207 205 
212 216 195 188 176 154 136 118 96 81 54 46 29 28 18 58 85 96 119 147 148 166 183 186 206 191 187 170 171 157 156 151 
146 141 147 148 154 151 144 141 135 122 130 135 133 141 168 167 
166 171 183 195 200 193 208 215 215 220 219 226 223 223 225 225 
218 224 215 218 208 217 213 201 209 208 212 217 208 195 196 198 
180 180 181 164 152 140 142 139 144 149 141 147 163 185 199 213 
214 206 188 170 171 144 145 110 35 17 13 35 35 27 18 55 80 106 126 141 146 159 176 194 207 187 182 162 167 151 161 165 
151 146 151 150 142 133 135 132 128 136 130 135 138 139 156 166 
161 165 186 204 206 210 219 216 214 219 221 219 217 217 218 218 
213 220 223 211 205 212 204 212 220 215 202 206 216 202 191 192 
183 179 176 162 148 139 146 150 145 152 151 159 168 181 186 207 
213 196 184 175 168 156 140 103 30 23 16 42 40 21 9 64 86 117 134 146 148 169 181 188 197 196 183 149 151 153 155 165 
159 152 155 148 150 145 139 136 121 139 129 126 134 137 146 163 
157 173 199 210 215 216 217 226 223 225 215 215 226 226 218 226 
223 221 221 212 217 211 206 218 221 212 197 207 216 209 194 193 
193 198 182 173 159 153 151 154 141 155 157 163 165 178 179 213 
215 187 193 179 159 164 150 106 40 21 7 32 32 18 7 55 96 117 127 145 156 168 176 191 191 182 162 160 167 158 154 163 
160 152 149 142 131 136 137 131 137 134 125 126 132 140 145 163 
148 169 188 201 207 219 216 220 214 221 222 219 226 239 218 219 
222 218 216 219 223 223 219 222 217 211 213 209 204 212 204 200 
197 197 188 192 168 156 141 156 156 160 153 165 167 179 176 220 
220 189 199 192 178 156 147 98 41 19 10 35 27 19 12 53 86 107 141 151 155 161 180 194 191 177 160 167 166 152 164 159 
153 152 144 139 135 142 144 129 147 142 130 131 134 138 148 160 
158 181 196 203 206 209 221 209 219 221 224 223 219 216 227 230 
223 226 234 225 218 215 209 220 227 212 214 222 210 206 203 204 
210 205 202 190 183 174 138 139 151 164 155 168 174 175 175 202 
214 186 201 189 165 152 152 133 67 23 14 36 33 23 22 52 87 96 121 149 143 164 188 200 196 175 155 158 158 163 173 159 
158 156 146 137 133 128 144 145 144 144 136 135 136 159 160 167 
183 189 193 203 208 216 221 214 225 226 220 220 226 225 230 230 
226 223 221 220 217 209 210 217 220 213 215 217 217 208 203 206 
207 204 204 199 195 169 143 134 151 160 151 164 174 178 169 184 
206 214 180 179 166 156 146 123 51 28 7 23 17 13 12 60 96 116 122 137 152 163 178 186 178 166 152 147 152 154 158 155 
150 146 152 143 148 155 137 146 146 146 141 149 150 168 173 161 
176 187 196 207 211 216 217 216 215 225 221 217 223 218 222 223 
219 218 222 221 213 217 216 216 213 206 211 215 216 224 201 199 
211 210 215 214 207 181 160 150 155 144 152 161 160 173 176 183 
198 199 189 169 169 165 149 127 54 34 15 26 23 16 16 56 79 92 128 136 154 166 178 186 169 158 148 147 153 146 147 158 
151 159 157 157 160 155 144 158 153 158 154 156 158 166 177 179 
173 182 195 204 204 205 216 219 217 232 225 217 221 213 219 226 
225 220 222 219 214 217 223 208 205 202 202 207 216 222 216 211 
203 205 209 201 195 198 179 156 153 151 163 155 161 170 168 172 
183 200 191 170 176 164 138 128 63 21 19 18 27 18 19 45 88 103 122 139 152 177 189 192 185 156 143 139 140 142 152 158 
140 159 160 171 169 170 175 179 190 176 170 182 179 166 162 166 
177 185 197 215 213 208 216 223 217 221 217 226 233 226 227 223 
222 216 212 210 219 219 211 206 212 211 213 207 213 209 205 203 
201 203 208 198 195 200 184 156 149 155 147 146 170 170 179 187 
199 198 184 170 172 156 136 137 87 16 17 26 29 17 29 51 88 114 122 136 150 162 184 185 184 148 131 131 123 128 134 132 
154 180 182 187 200 189 194 192 199 204 198 198 192 185 181 176 
184 203 205 205 210 214 209 218 221 228 230 229 226 232 224 228 
223 219 214 213 219 213 214 213 216 205 202 203 204 205 208 205 
204 218 199 198 204 201 186 172 167 163 156 154 160 157 162 176 
200 207 190 173 163 156 149 128 69 23 2 19 16 11 19 61 80 115 122 134 154 174 189 181 160 140 148 134 117 122 140 165 
174 184 187 194 198 203 208 199 202 207 201 189 197 198 198 192 
194 209 210 202 206 206 217 224 212 220 223 219 225 221 216 225 
213 219 221 215 216 206 210 213 208 208 208 211 211 199 208 214 
206 210 202 204 198 190 189 174 166 160 158 147 149 150 149 167 
187 203 194 188 167 156 147 123 70 9 26 27 13 18 18 51 78 98 116 141 149 167 192 175 157 140 130 112 108 134 164 192 
187 181 197 202 201 206 191 199 216 208 209 197 202 204 208 202 
202 207 211 208 215 214 219 215 218 229 219 213 225 222 217 218 
218 227 228 219 221 213 212 216 204 213 206 206 209 207 209 214 
207 206 211 203 211 199 201 203 187 163 159 154 152 144 143 159 
176 201 195 194 167 154 142 118 81 62 47 30 11 26 22 46 73 109 114 132 155 169 175 183 166 144 121 116 124 143 161 178 
190 201 203 202 206 217 206 200 206 211 220 205 209 217 205 206 
201 202 218 217 210 214 224 208 219 219 221 215 220 223 220 228 
234 232 214 217 217 204 204 208 209 212 212 208 207 203 208 210 
210 212 217 215 216 206 209 209 203 192 191 179 159 144 142 144 
155 193 195 182 166 139 133 111 88 68 50 29 23 19 18 44 77 99 125 141 149 172 192 181 154 132 111 133 161 174 170 180 
197 195 193 208 216 205 206 209 210 206 217 212 213 207 207 215 
206 194 215 218 204 206 220 217 216 218 228 224 229 231 224 226 
226 225 223 220 213 216 217 213 210 200 206 209 209 212 210 209 
218 217 212 223 214 213 207 212 204 184 186 176 168 159 143 130 
158 190 203 179 172 145 136 118 93 65 48 29 15 15 16 40 74 85 114 128 139 167 192 176 137 124 138 154 176 179 187 193 
199 199 214 213 215 219 210 210 214 208 209 215 216 209 213 205 
205 213 207 215 216 214 213 215 218 220 222 215 215 221 220 219 
218 223 224 204 205 215 215 212 209 205 216 210 213 217 216 218 
230 217 206 196 200 197 202 207 201 190 181 176 186 174 154 138 
150 169 212 190 162 143 128 114 87 65 37 26 19 16 20 33 68 99 116 121 138 166 185 176 156 151 167 176 182 187 180 184 
202 200 212 212 211 221 214 208 221 220 204 216 217 217 221 211 
209 226 234 229 224 220 247 231 250 240 228 226 242 235 228 241 
245 229 222 226 227 219 226 239 232 232 239 214 222 220 216 223 
224 216 210 213 209 213 203 204 210 200 196 188 189 182 170 172 
159 163 189 184 156 149 130 117 84 58 30 25 13 18 29 29 65 89 114 124 137 169 183 162 154 171 183 191 186 180 197 203 
199 203 207 210 205 215 220 218 220 217 211 217 220 215 221 224 
222 155 83 59 201 245 70 107 32 91 86 250 80 79 128 85 
60 118 112 103 117 95 75 70 120 81 110 235 225 219 208 212 
217 214 215 214 209 214 201 207 215 215 202 189 193 187 190 184 
167 156 204 195 163 144 127 104 84 53 31 19 21 27 23 34 55 72 101 129 135 170 196 185 154 165 188 182 203 203 207 200 
201 199 205 210 211 214 226 226 222 223 214 206 228 225 225 219 
236 135 222 244 83 180 134 255 11 237 99 246 96 217 95 218 
78 115 161 255 113 89 93 255 93 255 140 111 237 230 222 215 
217 213 207 216 213 206 205 195 200 199 195 196 196 190 206 203 
178 142 186 180 161 140 125 101 79 52 36 27 25 28 26 35 52 80 111 131 138 165 181 165 166 192 180 179 202 210 215 210 
220 219 209 217 207 212 227 218 211 219 224 226 221 213 227 221 
230 138 212 209 75 96 165 255 18 222 94 232 94 208 90 208 
101 255 89 208 162 98 255 45 222 48 250 95 228 216 212 221 
215 213 211 218 205 197 210 207 219 213 211 205 202 195 199 197 
196 150 180 192 167 133 120 100 71 47 35 24 20 22 20 33 60 76 102 125 151 175 184 168 183 180 188 192 202 211 207 209 
204 214 229 222 222 227 231 223 220 219 223 228 221 223 219 211 
223 139 231 58 172 40 206 218 20 225 95 255 94 205 96 208 
97 250 97 209 156 101 211 113 255 139 174 105 243 222 221 219 
219 219 214 211 207 215 207 213 216 214 203 202 206 206 207 189 
197 177 182 198 181 143 125 106 74 50 38 25 20 25 21 28 58 80 105 128 140 182 180 179 192 200 198 196 210 213 206 201 
211 217 215 218 217 224 227 222 221 225 223 221 227 217 216 222 
235 140 233 0 242 219 0 234 14 234 123 27 135 216 95 206 
97 250 94 211 159 85 253 140 25 107 255 62 233 221 219 217 
220 221 213 214 217 210 209 201 201 208 210 208 215 205 188 194 
201 193 182 186 182 151 125 99 68 40 25 18 20 28 13 31 45 68 116 129 144 179 177 193 184 195 202 196 210 216 216 205 
205 217 211 213 222 221 221 222 227 227 217 223 232 218 218 216 
227 133 237 77 82 201 46 237 84 50 255 255 253 43 151 212 
92 245 90 219 151 241 39 244 255 255 30 204 218 212 218 219 
217 223 219 219 221 214 206 206 211 218 221 214 211 199 208 204 
188 195 176 179 168 139 124 108 75 37 26 25 20 29 20 31 54 62 98 126 153 166 179 179 194 196 198 205 206 200 212 207 
208 217 215 216 219 222 221 217 224 225 217 216 221 229 221 217 
222 216 80 175 155 99 219 91 166 228 94 84 92 229 227 101 
164 239 159 90 213 232 238 98 77 89 215 214 226 218 225 223 
220 220 224 220 216 215 211 211 217 215 212 208 207 209 214 204 
196 192 175 183 177 143 121 105 68 43 32 23 19 24 24 34 41 55 95 119 142 178 177 179 200 202 193 204 205 212 203 208 
215 216 220 224 222 226 224 223 231 224 224 219 220 223 218 218 
218 226 239 231 236 239 219 230 223 223 230 232 236 228 93 117 
220 229 224 234 222 224 224 225 237 240 225 223 220 215 215 216 
233 216 215 222 227 226 214 218 222 215 215 216 212 208 205 203 
198 176 185 177 172 153 128 90 58 43 28 20 21 25 28 24 33 58 105 125 161 182 163 192 194 203 195 195 213 214 213 218 
207 193 216 218 216 220 224 215 220 216 219 232 232 221 223 214 
217 225 235 238 235 226 226 236 231 232 221 229 240 73 240 83 
192 252 238 229 220 206 209 229 234 233 220 218 216 216 212 217 
219 223 224 221 218 218 210 222 224 211 214 213 212 207 198 198 
195 203 199 174 164 158 124 91 59 39 24 29 22 25 27 24 40 55 96 125 140 178 165 188 193 196 202 204 215 216 214 214 
210 216 218 222 215 220 231 223 218 222 223 218 219 227 227 218 
227 212 90 80 79 71 172 160 92 213 227 87 178 103 0 160 
87 83 76 151 244 236 231 93 77 86 219 232 219 214 217 218 
210 224 229 222 219 219 211 216 222 215 221 219 213 212 207 208 
209 208 195 181 167 147 125 99 66 38 27 30 20 21 27 30 32 57 94 111 146 170 165 184 199 196 209 217 207 207 221 207 
209 212 226 214 207 227 225 230 222 217 218 226 232 224 226 219 
228 124 216 255 255 255 107 61 201 173 155 217 102 112 235 13 
255 255 255 163 68 255 36 248 255 255 32 228 224 223 220 219 
220 213 206 222 229 225 215 213 213 220 216 218 220 211 206 211 
211 198 195 188 160 146 127 92 60 39 22 16 21 21 22 29 24 58 99 117 148 167 176 190 202 197 205 215 211 208 211 214 
217 217 209 208 224 236 222 221 234 230 227 228 224 221 218 222 
226 136 227 40 105 60 215 44 194 176 155 209 110 112 213 33 
214 38 55 135 155 16 255 141 22 106 255 62 222 207 216 225 
217 212 217 220 218 223 216 213 213 221 219 218 210 204 201 197 
200 200 192 188 163 151 133 84 59 39 27 24 27 24 24 26 25 47 82 108 138 164 179 181 192 196 205 212 209 210 208 220 
223 215 211 224 230 231 212 217 223 218 218 227 222 220 218 218 
230 134 218 155 119 174 127 69 193 173 171 206 110 111 209 34 
212 163 255 94 231 19 221 101 255 143 174 104 240 216 229 224 
225 220 222 220 219 225 215 218 220 225 217 218 207 214 203 198 
204 199 189 185 164 149 126 98 71 36 22 30 16 22 27 30 28 49 71 119 140 157 177 187 188 204 204 201 208 218 211 213 
222 209 225 232 226 223 217 223 226 218 224 223 220 224 216 219 
231 137 221 149 101 255 110 71 192 135 106 211 110 111 216 32 
207 164 233 60 235 9 255 44 214 49 252 95 239 229 230 228 
218 211 217 218 216 222 215 228 215 221 216 218 214 220 209 196 
191 185 189 188 167 150 120 93 66 34 21 23 15 19 23 26 24 42 72 105 128 150 186 204 203 212 205 202 205 218 213 213 
211 211 225 216 218 228 229 223 218 217 221 212 211 216 218 223 
232 133 238 92 235 73 218 18 255 152 162 255 83 111 226 28 
255 108 107 255 74 133 103 255 97 255 133 115 227 223 232 225 
208 215 229 218 228 231 209 224 224 216 219 222 209 206 202 193 
192 185 200 199 162 147 126 87 55 28 25 21 23 24 24 19 22 43 69 89 132 150 181 184 192 201 205 206 204 213 221 224 
216 225 228 220 223 230 221 221 225 221 219 220 223 218 225 225 
227 158 81 89 254 71 116 79 58 118 114 45 249 87 83 33 
111 112 120 34 155 255 146 65 120 81 115 243 215 229 223 216 
221 217 221 211 218 224 219 214 226 217 216 217 218 211 200 201 
207 197 197 181 155 155 120 82 71 36 23 16 29 26 28 22 24 48 70 99 132 146 184 201 200 187 208 206 216 216 213 212 
215 232 225 219 225 220 221 227 223 221 226 225 212 221 230 227 
227 237 234 238 229 237 233 234 246 228 226 236 226 244 244 251 
238 234 241 236 229 224 238 242 237 228 232 225 222 220 221 225 
225 227 232 223 218 227 222 220 218 222 213 208 224 215 202 202 
206 200 201 184 153 145 127 91 62 47 33 24 29 32 20 24 15 39 71 90 126 157 181 189 200 194 205 195 202 213 216 212 
209 219 220 225 215 210 221 214 218 221 214 206 215 222 219 227 
231 219 225 221 217 230 221 227 234 226 216 218 226 232 228 222 
226 228 220 224 230 225 229 225 216 220 222 220 224 218 213 223 
219 226 222 217 226 219 220 220 216 218 222 216 215 218 218 205 
206 189 184 199 159 144 119 83 63 47 26 13 25 30 19 23 12 27 65 96 120 152 169 185 194 197 206 197 214 215 217 218 
231 226 220 221 223 231 228 220 216 221 228 236 233 218 221 223 
217 215 220 227 225 227 225 226 223 231 232 228 220 218 222 224 
223 221 221 224 217 223 223 226 220 228 224 219 230 227 225 225 
220 223 222 220 224 216 227 230 223 215 221 216 207 202 206 202 
211 200 184 186 161 144 107 79 66 42 29 29 31 32 22 